<?xml version="1.0" encoding="UTF-8" standalone="no"?><svg xmlns="http://www.w3.org/2000/svg" xmlns:xlink="http://www.w3.org/1999/xlink" contentScriptType="application/ecmascript" contentStyleType="text/css" height="696px" preserveAspectRatio="none" style="width:537px;height:696px;background:#FFFFFF;" version="1.1" viewBox="0 0 537 696" width="537px" zoomAndPan="magnify"><defs><filter height="300%" id="f1pa9shy8dgrl9" width="300%" x="-1" y="-1"><feGaussianBlur result="blurOut" stdDeviation="2.0"/><feColorMatrix in="blurOut" result="blurOut2" type="matrix" values="0 0 0 0 0 0 0 0 0 0 0 0 0 0 0 0 0 0 .4 0"/><feOffset dx="4.0" dy="4.0" in="blurOut2" result="blurOut3"/><feBlend in="SourceGraphic" in2="blurOut3" mode="normal"/></filter></defs><g><!--MD5=[f0dfe5e603cc226bf9558fc4deb2d601]
class SingletonBeanRegistry--><rect codeLine="2" fill="#FEFECE" filter="url(#f1pa9shy8dgrl9)" height="63.0229" id="SingletonBeanRegistry" style="stroke:#A80036;stroke-width:1.5;" width="158" x="33" y="7"/><ellipse cx="48" cy="23" fill="#B4A7E5" rx="11" ry="11" style="stroke:#A80036;stroke-width:1.0;"/><path d="M44.5938,17.7813 L44.5938,16.6875 L50.5938,16.6875 L50.5938,17.7813 L48.7188,17.7813 Q48.5781,17.7813 48.5156,17.8281 Q48.4688,17.8594 48.4688,17.9688 L48.4688,27.4531 Q48.4688,27.5625 48.5156,27.6094 Q48.5781,27.6406 48.7188,27.6406 L50.5938,27.6406 L50.5938,28.7344 L44.5938,28.7344 L44.5938,27.6406 L46.4688,27.6406 Q46.6563,27.6406 46.6875,27.6094 Q46.7188,27.5781 46.7188,27.4531 L46.7188,17.9688 Q46.7188,17.8438 46.6875,17.8125 Q46.6563,17.7813 46.4688,17.7813 L44.5938,17.7813 Z " fill="#000000"/><text fill="#000000" font-family="sans-serif" font-size="12" font-style="italic" lengthAdjust="spacing" textLength="126" x="62" y="28.5576">SingletonBeanRegistry</text><line style="stroke:#A80036;stroke-width:1.5;" x1="34" x2="190" y1="39" y2="39"/><line style="stroke:#A80036;stroke-width:1.5;" x1="34" x2="190" y1="47" y2="47"/><text fill="#000000" font-family="sans-serif" font-size="11" lengthAdjust="spacing" textLength="101" x="39" y="63.606">Object getSingleton()</text><!--MD5=[d8991812a86ee9dc2b8e022f468b844f]
class BeanFactory--><rect codeLine="6" fill="#FEFECE" filter="url(#f1pa9shy8dgrl9)" height="63.0229" id="BeanFactory" style="stroke:#A80036;stroke-width:1.5;" width="101" x="250.5" y="145"/><ellipse cx="265.5" cy="161" fill="#B4A7E5" rx="11" ry="11" style="stroke:#A80036;stroke-width:1.0;"/><path d="M262.0938,155.7813 L262.0938,154.6875 L268.0938,154.6875 L268.0938,155.7813 L266.2188,155.7813 Q266.0781,155.7813 266.0156,155.8281 Q265.9688,155.8594 265.9688,155.9688 L265.9688,165.4531 Q265.9688,165.5625 266.0156,165.6094 Q266.0781,165.6406 266.2188,165.6406 L268.0938,165.6406 L268.0938,166.7344 L262.0938,166.7344 L262.0938,165.6406 L263.9688,165.6406 Q264.1563,165.6406 264.1875,165.6094 Q264.2188,165.5781 264.2188,165.4531 L264.2188,155.9688 Q264.2188,155.8438 264.1875,155.8125 Q264.1563,155.7813 263.9688,155.7813 L262.0938,155.7813 Z " fill="#000000"/><text fill="#000000" font-family="sans-serif" font-size="12" font-style="italic" lengthAdjust="spacing" textLength="69" x="279.5" y="166.5576">BeanFactory</text><line style="stroke:#A80036;stroke-width:1.5;" x1="251.5" x2="350.5" y1="177" y2="177"/><line style="stroke:#A80036;stroke-width:1.5;" x1="251.5" x2="350.5" y1="185" y2="185"/><text fill="#000000" font-family="sans-serif" font-size="11" lengthAdjust="spacing" textLength="82" x="256.5" y="201.606">Object getBean()</text><!--MD5=[0734bc3c8c780ad01a5bb8b545fce967]
class BeanDefinitionRegistry--><rect codeLine="10" fill="#FEFECE" filter="url(#f1pa9shy8dgrl9)" height="63.0229" id="BeanDefinitionRegistry" style="stroke:#A80036;stroke-width:1.5;" width="158" x="365" y="458.5"/><ellipse cx="380" cy="474.5" fill="#B4A7E5" rx="11" ry="11" style="stroke:#A80036;stroke-width:1.0;"/><path d="M376.5938,469.2813 L376.5938,468.1875 L382.5938,468.1875 L382.5938,469.2813 L380.7188,469.2813 Q380.5781,469.2813 380.5156,469.3281 Q380.4688,469.3594 380.4688,469.4688 L380.4688,478.9531 Q380.4688,479.0625 380.5156,479.1094 Q380.5781,479.1406 380.7188,479.1406 L382.5938,479.1406 L382.5938,480.2344 L376.5938,480.2344 L376.5938,479.1406 L378.4688,479.1406 Q378.6563,479.1406 378.6875,479.1094 Q378.7188,479.0781 378.7188,478.9531 L378.7188,469.4688 Q378.7188,469.3438 378.6875,469.3125 Q378.6563,469.2813 378.4688,469.2813 L376.5938,469.2813 Z " fill="#000000"/><text fill="#000000" font-family="sans-serif" font-size="12" font-style="italic" lengthAdjust="spacing" textLength="126" x="394" y="480.0576">BeanDefinitionRegistry</text><line style="stroke:#A80036;stroke-width:1.5;" x1="366" x2="522" y1="490.5" y2="490.5"/><line style="stroke:#A80036;stroke-width:1.5;" x1="366" x2="522" y1="498.5" y2="498.5"/><text fill="#000000" font-family="sans-serif" font-size="11" lengthAdjust="spacing" textLength="137" x="371" y="515.106">void registerBeanDefinition()</text><!--MD5=[85e36d9dae0bc325859778e3acbf6e90]
class DefaultSingletonBeanRegistry--><rect codeLine="40" fill="#FEFECE" filter="url(#f1pa9shy8dgrl9)" height="93.0688" id="DefaultSingletonBeanRegistry" style="stroke:#A80036;stroke-width:1.5;" width="206" x="9" y="130"/><ellipse cx="28.05" cy="146" fill="#ADD1B2" rx="11" ry="11" style="stroke:#A80036;stroke-width:1.0;"/><path d="M27.4719,151.8594 Q25.4406,151.8594 24.2531,150.3594 Q23.0813,148.8594 23.0813,145.75 Q23.0813,143.1094 24.3313,141.3438 Q25.5813,139.5625 27.7375,139.5625 Q28.2531,139.5625 28.7844,139.7031 Q29.2219,139.8906 29.4719,139.8906 Q29.6594,139.8906 29.7531,139.8594 Q29.8469,139.8125 30.3938,139.0938 L31.2063,143.0625 L30.1594,143.375 Q29.7063,141.875 29.1125,141.2969 Q28.5344,140.7031 27.6125,140.7031 Q26.4406,140.7031 25.7375,142.1094 Q25.0344,143.5 25.0344,145.6719 Q25.0344,148.0625 25.6281,149.3281 Q26.2375,150.5781 27.55,150.5781 Q28.4719,150.5781 29.1438,149.9063 Q29.8156,149.2188 30.1438,147.6406 L31.1906,148.1406 Q30.7844,149.9063 29.8,150.8906 Q28.8156,151.8594 27.4719,151.8594 Z " fill="#000000"/><text fill="#000000" font-family="sans-serif" font-size="12" lengthAdjust="spacing" textLength="165" x="42.95" y="151.5576">DefaultSingletonBeanRegistry</text><line style="stroke:#A80036;stroke-width:1.5;" x1="10" x2="214" y1="162" y2="162"/><rect fill="none" height="6" style="stroke:#C82930;stroke-width:1.0;" width="6" x="17" y="170"/><text fill="#000000" font-family="sans-serif" font-size="11" lengthAdjust="spacing" textLength="180" x="29" y="178.606">Map&lt;String, Object&gt; singletonObjects</text><line style="stroke:#A80036;stroke-width:1.5;" x1="10" x2="214" y1="185.0229" y2="185.0229"/><ellipse cx="20" cy="196.0229" fill="#84BE84" rx="3" ry="3" style="stroke:#038048;stroke-width:1.0;"/><text fill="#000000" font-family="sans-serif" font-size="11" lengthAdjust="spacing" textLength="101" x="29" y="201.6289">Object getSingleton()</text><polygon fill="#FFFF44" points="20,206.0459,24,210.0459,20,214.0459,16,210.0459" style="stroke:#B38D22;stroke-width:1.0;"/><text fill="#000000" font-family="sans-serif" font-size="11" lengthAdjust="spacing" textLength="93" x="29" y="216.6519">void addSingleton()</text><!--MD5=[8acb71ec5469587694861b276cc7fa58]
class AbstractBeanFactory--><rect codeLine="42" fill="#FEFECE" filter="url(#f1pa9shy8dgrl9)" height="108.0918" id="AbstractBeanFactory" style="stroke:#A80036;stroke-width:1.5;" width="196" x="108" y="283"/><ellipse cx="145.5" cy="299" fill="#A9DCDF" rx="11" ry="11" style="stroke:#A80036;stroke-width:1.0;"/><path d="M145.9375,299.4844 L143.5,299.4844 L142.9844,301.7188 Q142.9219,302.0313 142.9219,302.1875 Q142.9219,302.3906 142.9688,302.5156 Q143.0156,302.6406 143.2344,302.6406 L143.7813,302.6406 L143.7813,303.7344 L140.6406,303.7344 L140.6406,302.6406 L141.1719,302.6406 Q141.3125,302.6406 141.4219,302.5625 Q141.5313,302.4688 141.5625,302.2031 L144.2188,291.8281 L145.75,291.3281 L148.3438,302.1719 Q148.4531,302.4531 148.5625,302.5469 Q148.6719,302.6406 148.8125,302.6406 L149.3594,302.6406 L149.3594,303.7344 L145.8125,303.7344 L145.8125,302.6406 L146.4219,302.6406 Q146.5938,302.6406 146.5938,302.625 Q146.6094,302.5938 146.6094,302.5313 Q146.6094,302.3125 146.5625,302.1563 L145.9375,299.4844 Z M141.3594,303.3281 L141.3594,303.3281 Z M142.0313,303.3281 L142.0313,303.3281 Z M146.75,303.3281 L146.75,303.3281 Z M147.875,303.3281 L147.875,303.3281 Z M144.7656,293.3125 L144.8281,293.3125 L143.8125,298.3906 L145.7188,298.3906 L144.7656,293.3125 Z " fill="#000000"/><text fill="#000000" font-family="sans-serif" font-size="12" font-style="italic" lengthAdjust="spacing" textLength="114" x="164.5" y="304.5576">AbstractBeanFactory</text><line style="stroke:#A80036;stroke-width:1.5;" x1="109" x2="303" y1="315" y2="315"/><line style="stroke:#A80036;stroke-width:1.5;" x1="109" x2="303" y1="323" y2="323"/><ellipse cx="119" cy="334" fill="#84BE84" rx="3" ry="3" style="stroke:#038048;stroke-width:1.0;"/><text fill="#000000" font-family="sans-serif" font-size="11" lengthAdjust="spacing" textLength="82" x="128" y="339.606">Object getBean()</text><text fill="#000000" font-family="sans-serif" font-size="11" lengthAdjust="spacing" textLength="0" x="131" y="354.6289"/><polygon fill="#FFFF44" points="119,359.0459,123,363.0459,119,367.0459,115,363.0459" style="stroke:#B38D22;stroke-width:1.0;"/><text fill="#000000" font-family="sans-serif" font-size="11" font-style="italic" lengthAdjust="spacing" textLength="101" x="128" y="369.6519">Object createBean()</text><polygon fill="#FFFF44" points="119,374.0688,123,378.0688,119,382.0688,115,378.0688" style="stroke:#B38D22;stroke-width:1.0;"/><text fill="#000000" font-family="sans-serif" font-size="11" font-style="italic" lengthAdjust="spacing" textLength="170" x="128" y="384.6748">BeanDefinition getBeanDefinition()</text><!--MD5=[61c6a5f7fa7455cf51e79b45f09f6392]
class AbstractAutowiredCapableBeanFactory--><rect codeLine="43" fill="#FEFECE" filter="url(#f1pa9shy8dgrl9)" height="78.0459" id="AbstractAutowiredCapableBeanFactory" style="stroke:#A80036;stroke-width:1.5;" width="248" x="82" y="451"/><ellipse cx="97" cy="467" fill="#A9DCDF" rx="11" ry="11" style="stroke:#A80036;stroke-width:1.0;"/><path d="M97.4375,467.4844 L95,467.4844 L94.4844,469.7188 Q94.4219,470.0313 94.4219,470.1875 Q94.4219,470.3906 94.4688,470.5156 Q94.5156,470.6406 94.7344,470.6406 L95.2813,470.6406 L95.2813,471.7344 L92.1406,471.7344 L92.1406,470.6406 L92.6719,470.6406 Q92.8125,470.6406 92.9219,470.5625 Q93.0313,470.4688 93.0625,470.2031 L95.7188,459.8281 L97.25,459.3281 L99.8438,470.1719 Q99.9531,470.4531 100.0625,470.5469 Q100.1719,470.6406 100.3125,470.6406 L100.8594,470.6406 L100.8594,471.7344 L97.3125,471.7344 L97.3125,470.6406 L97.9219,470.6406 Q98.0938,470.6406 98.0938,470.625 Q98.1094,470.5938 98.1094,470.5313 Q98.1094,470.3125 98.0625,470.1563 L97.4375,467.4844 Z M92.8594,471.3281 L92.8594,471.3281 Z M93.5313,471.3281 L93.5313,471.3281 Z M98.25,471.3281 L98.25,471.3281 Z M99.375,471.3281 L99.375,471.3281 Z M96.2656,461.3125 L96.3281,461.3125 L95.3125,466.3906 L97.2188,466.3906 L96.2656,461.3125 Z " fill="#000000"/><text fill="#000000" font-family="sans-serif" font-size="12" font-style="italic" lengthAdjust="spacing" textLength="216" x="111" y="472.5576">AbstractAutowiredCapableBeanFactory</text><line style="stroke:#A80036;stroke-width:1.5;" x1="83" x2="329" y1="483" y2="483"/><line style="stroke:#A80036;stroke-width:1.5;" x1="83" x2="329" y1="491" y2="491"/><polygon fill="#FFFF44" points="93,497,97,501,93,505,89,501" style="stroke:#B38D22;stroke-width:1.0;"/><text fill="#000000" font-family="sans-serif" font-size="11" lengthAdjust="spacing" textLength="98" x="102" y="507.606">Object createBean()</text><polygon fill="#FFFF44" points="93,512.0229,97,516.0229,93,520.0229,89,516.0229" style="stroke:#B38D22;stroke-width:1.0;"/><text fill="#000000" font-family="sans-serif" font-size="11" lengthAdjust="spacing" textLength="111" x="102" y="522.6289">Object doCreateBean()</text><!--MD5=[9fbe117df7beb94d4c9dff387ddbaa6a]
class DefaultListableBeanFactory--><rect codeLine="45" fill="#FEFECE" filter="url(#f1pa9shy8dgrl9)" height="93.0688" id="DefaultListableBeanFactory" style="stroke:#A80036;stroke-width:1.5;" width="252" x="199" y="589"/><ellipse cx="245.25" cy="605" fill="#ADD1B2" rx="11" ry="11" style="stroke:#A80036;stroke-width:1.0;"/><path d="M244.6719,610.8594 Q242.6406,610.8594 241.4531,609.3594 Q240.2813,607.8594 240.2813,604.75 Q240.2813,602.1094 241.5313,600.3438 Q242.7813,598.5625 244.9375,598.5625 Q245.4531,598.5625 245.9844,598.7031 Q246.4219,598.8906 246.6719,598.8906 Q246.8594,598.8906 246.9531,598.8594 Q247.0469,598.8125 247.5938,598.0938 L248.4063,602.0625 L247.3594,602.375 Q246.9063,600.875 246.3125,600.2969 Q245.7344,599.7031 244.8125,599.7031 Q243.6406,599.7031 242.9375,601.1094 Q242.2344,602.5 242.2344,604.6719 Q242.2344,607.0625 242.8281,608.3281 Q243.4375,609.5781 244.75,609.5781 Q245.6719,609.5781 246.3438,608.9063 Q247.0156,608.2188 247.3438,606.6406 L248.3906,607.1406 Q247.9844,608.9063 247,609.8906 Q246.0156,610.8594 244.6719,610.8594 Z " fill="#000000"/><text fill="#000000" font-family="sans-serif" font-size="12" lengthAdjust="spacing" textLength="151" x="265.75" y="610.5576">DefaultListableBeanFactory</text><line style="stroke:#A80036;stroke-width:1.5;" x1="200" x2="450" y1="621" y2="621"/><rect fill="none" height="6" style="stroke:#C82930;stroke-width:1.0;" width="6" x="207" y="629"/><text fill="#000000" font-family="sans-serif" font-size="11" lengthAdjust="spacing" textLength="226" x="219" y="637.606">Map&lt;String, BeanDefinition&gt; beanDefinitionMap</text><line style="stroke:#A80036;stroke-width:1.5;" x1="200" x2="450" y1="644.0229" y2="644.0229"/><ellipse cx="210" cy="655.0229" fill="#84BE84" rx="3" ry="3" style="stroke:#038048;stroke-width:1.0;"/><text fill="#000000" font-family="sans-serif" font-size="11" lengthAdjust="spacing" textLength="137" x="219" y="660.6289">void registerBeanDefinition()</text><polygon fill="#FFFF44" points="210,665.0459,214,669.0459,210,673.0459,206,669.0459" style="stroke:#B38D22;stroke-width:1.0;"/><text fill="#000000" font-family="sans-serif" font-size="11" lengthAdjust="spacing" textLength="164" x="219" y="675.6519">BeanDefinition getBeanDefinition()</text><!--MD5=[b78ad9f88b3df6a41cc919fd30fdc018]
reverse link SingletonBeanRegistry to DefaultSingletonBeanRegistry--><path d="M112,90.08 C112,103.12 112,117.07 112,129.84 " fill="none" id="SingletonBeanRegistry-backto-DefaultSingletonBeanRegistry" style="stroke:#A80036;stroke-width:1.0;stroke-dasharray:7.0,7.0;"/><polygon fill="none" points="105,90.02,112,70.02,119,90.02,105,90.02" style="stroke:#A80036;stroke-width:1.0;"/><!--MD5=[44c4dd4524d8b1359eb1f6e992f4d458]
reverse link DefaultSingletonBeanRegistry to AbstractBeanFactory--><path d="M149.43,240.61 C157.76,254.66 166.51,269.41 174.56,282.99 " fill="none" id="DefaultSingletonBeanRegistry-backto-AbstractBeanFactory" style="stroke:#A80036;stroke-width:1.0;"/><polygon fill="none" points="143.37,244.12,139.19,223.34,155.41,236.98,143.37,244.12" style="stroke:#A80036;stroke-width:1.0;"/><!--MD5=[969f9eedad21a7408313177e6bb3d537]
reverse link BeanFactory to AbstractBeanFactory--><path d="M272.27,225.44 C261.43,243.52 249.04,264.2 237.92,282.74 " fill="none" id="BeanFactory-backto-AbstractBeanFactory" style="stroke:#A80036;stroke-width:1.0;stroke-dasharray:7.0,7.0;"/><polygon fill="none" points="266.4,221.62,282.68,208.06,278.41,228.81,266.4,221.62" style="stroke:#A80036;stroke-width:1.0;"/><!--MD5=[44de12a20d494aa2c9ddc161b0f2b8e1]
reverse link AbstractBeanFactory to AbstractAutowiredCapableBeanFactory--><path d="M206,411.61 C206,425.23 206,438.93 206,450.94 " fill="none" id="AbstractBeanFactory-backto-AbstractAutowiredCapableBeanFactory" style="stroke:#A80036;stroke-width:1.0;"/><polygon fill="none" points="199,411.24,206,391.24,213,411.24,199,411.24" style="stroke:#A80036;stroke-width:1.0;"/><!--MD5=[baf1a97cbc68a0c53395c66fe3eee7e1]
reverse link AbstractAutowiredCapableBeanFactory to DefaultListableBeanFactory--><path d="M250.65,544.85 C262.66,559.33 275.53,574.84 287.13,588.83 " fill="none" id="AbstractAutowiredCapableBeanFactory-backto-DefaultListableBeanFactory" style="stroke:#A80036;stroke-width:1.0;"/><polygon fill="none" points="244.96,548.94,237.58,529.08,255.73,540.01,244.96,548.94" style="stroke:#A80036;stroke-width:1.0;"/><!--MD5=[ec2f3647d0ef9843dbf06c1e403d71d0]
reverse link BeanDefinitionRegistry to DefaultListableBeanFactory--><path d="M405.51,537.41 C391.86,553.87 376.52,572.37 362.92,588.77 " fill="none" id="BeanDefinitionRegistry-backto-DefaultListableBeanFactory" style="stroke:#A80036;stroke-width:1.0;stroke-dasharray:7.0,7.0;"/><polygon fill="none" points="400.32,532.71,418.47,521.78,411.09,541.65,400.32,532.71" style="stroke:#A80036;stroke-width:1.0;"/><!--MD5=[a14aa13accdd5f16f270a15050167f8a]
@startuml

interface SingletonBeanRegistry {
    Object getSingleton()
}

interface BeanFactory {
    Object getBean()
}

interface BeanDefinitionRegistry {
    void registerBeanDefinition()
}

class DefaultSingletonBeanRegistry {
    -Map<String, Object> singletonObjects 

    +Object getSingleton()
    #void addSingleton()
}

abstract class AbstractBeanFactory {
    +Object getBean()

    #{abstract}Object createBean()
    #{abstract}BeanDefinition getBeanDefinition()
}

abstract class AbstractAutowiredCapableBeanFactory {
    #Object createBean()
    #Object doCreateBean()
}

class DefaultListableBeanFactory {
    -Map<String, BeanDefinition> beanDefinitionMap

    +void registerBeanDefinition()
    #BeanDefinition getBeanDefinition()
}

class DefaultSingletonBeanRegistry implements SingletonBeanRegistry
abstract class AbstractBeanFactory extends DefaultSingletonBeanRegistry
abstract class AbstractBeanFactory implements BeanFactory
abstract class AbstractAutowiredCapableBeanFactory extends AbstractBeanFactory
class DefaultListableBeanFactory extends AbstractAutowiredCapableBeanFactory
class DefaultListableBeanFactory implements BeanDefinitionRegistry

@enduml

PlantUML version 1.2021.14(Sat Nov 13 00:46:50 CST 2021)
(GPL source distribution)
Java Runtime: Java(TM) SE Runtime Environment
JVM: Java HotSpot(TM) 64-Bit Server VM
Default Encoding: GBK
Language: zh
Country: CN
--></g></svg>