<?xml version="1.0" encoding="UTF-8" standalone="no"?><svg xmlns="http://www.w3.org/2000/svg" xmlns:xlink="http://www.w3.org/1999/xlink" contentScriptType="application/ecmascript" contentStyleType="text/css" height="457px" preserveAspectRatio="none" style="width:373px;height:457px;background:#FFFFFF;" version="1.1" viewBox="0 0 373 457" width="373px" zoomAndPan="magnify"><defs><filter height="300%" id="f12rhd6lv6kd8y" width="300%" x="-1" y="-1"><feGaussianBlur result="blurOut" stdDeviation="2.0"/><feColorMatrix in="blurOut" result="blurOut2" type="matrix" values="0 0 0 0 0 0 0 0 0 0 0 0 0 0 0 0 0 0 .4 0"/><feOffset dx="4.0" dy="4.0" in="blurOut2" result="blurOut3"/><feBlend in="SourceGraphic" in2="blurOut3" mode="normal"/></filter></defs><g><ellipse cx="244" cy="20" fill="#000000" filter="url(#f12rhd6lv6kd8y)" rx="10" ry="10" style="stroke:none;stroke-width:1.0;"/><rect fill="#FEFECE" filter="url(#f12rhd6lv6kd8y)" height="36.3887" rx="12.5" ry="12.5" style="stroke:#A80036;stroke-width:1.5;" width="152" x="168" y="50"/><text fill="#000000" font-family="sans-serif" font-size="12" lengthAdjust="spacing" textLength="132" x="178" y="73.752">从容器中获取 Java Bean</text><polygon fill="#FEFECE" filter="url(#f12rhd6lv6kd8y)" points="163.5,106.3887,324.5,106.3887,336.5,118.3887,324.5,130.3887,163.5,130.3887,151.5,118.3887,163.5,106.3887" style="stroke:#A80036;stroke-width:1.5;"/><text fill="#000000" font-family="sans-serif" font-size="11" lengthAdjust="spacing" textLength="161" x="163.5" y="123.4832">Java Bean是否已注册到容器中？</text><text fill="#000000" font-family="sans-serif" font-size="11" lengthAdjust="spacing" textLength="11" x="140.5" y="115.9717">是</text><text fill="#000000" font-family="sans-serif" font-size="11" lengthAdjust="spacing" textLength="11" x="336.5" y="115.9717">否</text><rect fill="#FEFECE" filter="url(#f12rhd6lv6kd8y)" height="36.3887" rx="12.5" ry="12.5" style="stroke:#A80036;stroke-width:1.5;" width="167" x="58" y="189.9001"/><text fill="#000000" font-family="sans-serif" font-size="12" lengthAdjust="spacing" textLength="147" x="68" y="213.6521">创建 Java Bean 的实例对象</text><rect fill="#FEFECE" filter="url(#f12rhd6lv6kd8y)" height="36.3887" rx="12.5" ry="12.5" style="stroke:#A80036;stroke-width:1.5;" width="215" x="34" y="261.2888"/><text fill="#000000" font-family="sans-serif" font-size="12" lengthAdjust="spacing" textLength="195" x="44" y="285.0408">将 Java Bean 的实例对象放入容器中</text><polygon fill="#FEFECE" filter="url(#f12rhd6lv6kd8y)" points="32,140.3887,251,140.3887,263,152.3887,251,164.3887,32,164.3887,20,152.3887,32,140.3887" style="stroke:#A80036;stroke-width:1.5;"/><text fill="#000000" font-family="sans-serif" font-size="11" lengthAdjust="spacing" textLength="11" x="145.5" y="176.9946">否</text><text fill="#000000" font-family="sans-serif" font-size="11" lengthAdjust="spacing" textLength="219" x="32" y="157.4832">Java Bean 的实例对象是否已存在于容器中？</text><text fill="#000000" font-family="sans-serif" font-size="11" lengthAdjust="spacing" textLength="11" x="263" y="149.9717">是</text><polygon fill="#FEFECE" filter="url(#f12rhd6lv6kd8y)" points="141.5,317.6775,153.5,329.6775,141.5,341.6775,129.5,329.6775,141.5,317.6775" style="stroke:#A80036;stroke-width:1.5;"/><ellipse cx="346.5" cy="150.3887" fill="#FFFFFF" filter="url(#f12rhd6lv6kd8y)" rx="10" ry="10" style="stroke:#000000;stroke-width:1.5;"/><line style="stroke:#000000;stroke-width:2.5;" x1="340.3128" x2="352.6872" y1="144.2015" y2="156.5759"/><line style="stroke:#000000;stroke-width:2.5;" x1="352.6872" x2="340.3128" y1="144.2015" y2="156.5759"/><rect fill="#FEFECE" filter="url(#f12rhd6lv6kd8y)" height="36.3887" rx="12.5" ry="12.5" style="stroke:#A80036;stroke-width:1.5;" width="104" x="192" y="361.6775"/><text fill="#000000" font-family="sans-serif" font-size="12" lengthAdjust="spacing" textLength="84" x="202" y="385.4294">返回 Java Bean</text><ellipse cx="244" cy="429.0662" fill="#FFFFFF" filter="url(#f12rhd6lv6kd8y)" rx="11" ry="11" style="stroke:#000000;stroke-width:1.0;"/><ellipse cx="244" cy="429.0662" fill="#000000" rx="6" ry="6" style="stroke:#7F7F7F;stroke-width:1.0;"/><line style="stroke:#A80036;stroke-width:1.5;" x1="244" x2="244" y1="30" y2="50"/><polygon fill="#A80036" points="240,40,244,50,248,40,244,44" style="stroke:#A80036;stroke-width:1.0;"/><line style="stroke:#A80036;stroke-width:1.5;" x1="141.5" x2="141.5" y1="226.2888" y2="261.2888"/><polygon fill="#A80036" points="137.5,251.2888,141.5,261.2888,145.5,251.2888,141.5,255.2888" style="stroke:#A80036;stroke-width:1.0;"/><line style="stroke:#A80036;stroke-width:1.5;" x1="141.5" x2="141.5" y1="164.3887" y2="189.9001"/><polygon fill="#A80036" points="137.5,179.9001,141.5,189.9001,145.5,179.9001,141.5,183.9001" style="stroke:#A80036;stroke-width:1.0;"/><line style="stroke:#A80036;stroke-width:1.5;" x1="263" x2="275" y1="152.3887" y2="152.3887"/><polygon fill="#A80036" points="271,233.7888,275,243.7888,279,233.7888,275,237.7888" style="stroke:#A80036;stroke-width:1.5;"/><line style="stroke:#A80036;stroke-width:1.5;" x1="275" x2="275" y1="152.3887" y2="329.6775"/><line style="stroke:#A80036;stroke-width:1.5;" x1="275" x2="153.5" y1="329.6775" y2="329.6775"/><polygon fill="#A80036" points="163.5,325.6775,153.5,329.6775,163.5,333.6775,159.5,329.6775" style="stroke:#A80036;stroke-width:1.0;"/><line style="stroke:#A80036;stroke-width:1.5;" x1="141.5" x2="141.5" y1="297.6775" y2="317.6775"/><polygon fill="#A80036" points="137.5,307.6775,141.5,317.6775,145.5,307.6775,141.5,311.6775" style="stroke:#A80036;stroke-width:1.0;"/><line style="stroke:#A80036;stroke-width:1.5;" x1="151.5" x2="141.5" y1="118.3887" y2="118.3887"/><line style="stroke:#A80036;stroke-width:1.5;" x1="141.5" x2="141.5" y1="118.3887" y2="140.3887"/><polygon fill="#A80036" points="137.5,130.3887,141.5,140.3887,145.5,130.3887,141.5,134.3887" style="stroke:#A80036;stroke-width:1.0;"/><line style="stroke:#A80036;stroke-width:1.5;" x1="336.5" x2="346.5" y1="118.3887" y2="118.3887"/><line style="stroke:#A80036;stroke-width:1.5;" x1="346.5" x2="346.5" y1="118.3887" y2="140.3887"/><polygon fill="#A80036" points="342.5,130.3887,346.5,140.3887,350.5,130.3887,346.5,134.3887" style="stroke:#A80036;stroke-width:1.0;"/><line style="stroke:#A80036;stroke-width:1.5;" x1="141.5" x2="141.5" y1="341.6775" y2="346.6775"/><line style="stroke:#A80036;stroke-width:1.5;" x1="141.5" x2="244" y1="346.6775" y2="346.6775"/><line style="stroke:#A80036;stroke-width:1.5;" x1="244" x2="244" y1="346.6775" y2="361.6775"/><polygon fill="#A80036" points="240,351.6775,244,361.6775,248,351.6775,244,355.6775" style="stroke:#A80036;stroke-width:1.0;"/><line style="stroke:#A80036;stroke-width:1.5;" x1="244" x2="244" y1="86.3887" y2="106.3887"/><polygon fill="#A80036" points="240,96.3887,244,106.3887,248,96.3887,244,100.3887" style="stroke:#A80036;stroke-width:1.0;"/><line style="stroke:#A80036;stroke-width:1.5;" x1="244" x2="244" y1="398.0662" y2="418.0662"/><polygon fill="#A80036" points="240,408.0662,244,418.0662,248,408.0662,244,412.0662" style="stroke:#A80036;stroke-width:1.0;"/><!--MD5=[b76be609949bcc2360e646a844e0fbab]
@startuml

start

:从容器中获取 Java Bean;

if (Java Bean是否已注册到容器中？) then (是)
    if (Java Bean 的实例对象是否已存在于容器中？) then (是)
    else (否)
        :创建 Java Bean 的实例对象;
        :将 Java Bean 的实例对象放入容器中;
    endif
else (否)
    end
endif

:返回 Java Bean;

stop

@enduml

PlantUML version 1.2021.14(Sat Nov 13 00:46:50 CST 2021)
(GPL source distribution)
Java Runtime: Java(TM) SE Runtime Environment
JVM: Java HotSpot(TM) 64-Bit Server VM
Default Encoding: GBK
Language: zh
Country: CN
--></g></svg>