<?xml version="1.0" encoding="UTF-8" standalone="no"?><svg xmlns="http://www.w3.org/2000/svg" xmlns:xlink="http://www.w3.org/1999/xlink" contentScriptType="application/ecmascript" contentStyleType="text/css" height="207px" preserveAspectRatio="none" style="width:479px;height:207px;background:#FFFFFF;" version="1.1" viewBox="0 0 479 207" width="479px" zoomAndPan="magnify"><defs><filter height="300%" id="fbn335tvkehej" width="300%" x="-1" y="-1"><feGaussianBlur result="blurOut" stdDeviation="2.0"/><feColorMatrix in="blurOut" result="blurOut2" type="matrix" values="0 0 0 0 0 0 0 0 0 0 0 0 0 0 0 0 0 0 .4 0"/><feOffset dx="4.0" dy="4.0" in="blurOut2" result="blurOut3"/><feBlend in="SourceGraphic" in2="blurOut3" mode="normal"/></filter></defs><g><!--MD5=[298d7bf537e131b7085cfcc0e21e669e]
class InstantiationStrategy--><rect codeLine="2" fill="#FEFECE" filter="url(#fbn335tvkehej)" height="63.0229" id="InstantiationStrategy" style="stroke:#A80036;stroke-width:1.5;" width="144" x="149" y="7"/><ellipse cx="164" cy="23" fill="#B4A7E5" rx="11" ry="11" style="stroke:#A80036;stroke-width:1.0;"/><path d="M160.5938,17.7813 L160.5938,16.6875 L166.5938,16.6875 L166.5938,17.7813 L164.7188,17.7813 Q164.5781,17.7813 164.5156,17.8281 Q164.4688,17.8594 164.4688,17.9688 L164.4688,27.4531 Q164.4688,27.5625 164.5156,27.6094 Q164.5781,27.6406 164.7188,27.6406 L166.5938,27.6406 L166.5938,28.7344 L160.5938,28.7344 L160.5938,27.6406 L162.4688,27.6406 Q162.6563,27.6406 162.6875,27.6094 Q162.7188,27.5781 162.7188,27.4531 L162.7188,17.9688 Q162.7188,17.8438 162.6875,17.8125 Q162.6563,17.7813 162.4688,17.7813 L160.5938,17.7813 Z " fill="#000000"/><text fill="#000000" font-family="sans-serif" font-size="12" font-style="italic" lengthAdjust="spacing" textLength="112" x="178" y="28.5576">InstantiationStrategy</text><line style="stroke:#A80036;stroke-width:1.5;" x1="150" x2="292" y1="39" y2="39"/><line style="stroke:#A80036;stroke-width:1.5;" x1="150" x2="292" y1="47" y2="47"/><text fill="#000000" font-family="sans-serif" font-size="11" lengthAdjust="spacing" textLength="91" x="155" y="63.606">Object instantiate()</text><!--MD5=[f79a45095066501d73622f8477f0fb28]
class SimpleInstantiationStrategy--><rect codeLine="14" fill="#FEFECE" filter="url(#fbn335tvkehej)" height="63.0229" id="SimpleInstantiationStrategy" style="stroke:#A80036;stroke-width:1.5;" width="182" x="7" y="130"/><ellipse cx="22" cy="146" fill="#ADD1B2" rx="11" ry="11" style="stroke:#A80036;stroke-width:1.0;"/><path d="M21.4219,151.8594 Q19.3906,151.8594 18.2031,150.3594 Q17.0313,148.8594 17.0313,145.75 Q17.0313,143.1094 18.2813,141.3438 Q19.5313,139.5625 21.6875,139.5625 Q22.2031,139.5625 22.7344,139.7031 Q23.1719,139.8906 23.4219,139.8906 Q23.6094,139.8906 23.7031,139.8594 Q23.7969,139.8125 24.3438,139.0938 L25.1563,143.0625 L24.1094,143.375 Q23.6563,141.875 23.0625,141.2969 Q22.4844,140.7031 21.5625,140.7031 Q20.3906,140.7031 19.6875,142.1094 Q18.9844,143.5 18.9844,145.6719 Q18.9844,148.0625 19.5781,149.3281 Q20.1875,150.5781 21.5,150.5781 Q22.4219,150.5781 23.0938,149.9063 Q23.7656,149.2188 24.0938,147.6406 L25.1406,148.1406 Q24.7344,149.9063 23.75,150.8906 Q22.7656,151.8594 21.4219,151.8594 Z " fill="#000000"/><text fill="#000000" font-family="sans-serif" font-size="12" lengthAdjust="spacing" textLength="150" x="36" y="151.5576">SimpleInstantiationStrategy</text><line style="stroke:#A80036;stroke-width:1.5;" x1="8" x2="188" y1="162" y2="162"/><line style="stroke:#A80036;stroke-width:1.5;" x1="8" x2="188" y1="170" y2="170"/><ellipse cx="18" cy="181" fill="#84BE84" rx="3" ry="3" style="stroke:#038048;stroke-width:1.0;"/><text fill="#000000" font-family="sans-serif" font-size="11" lengthAdjust="spacing" textLength="91" x="27" y="186.606">Object instantiate()</text><!--MD5=[b659cf96c7440f9907aa92992bab0a8a]
class CglibSubclassingInstantiationStrategy--><rect codeLine="15" fill="#FEFECE" filter="url(#fbn335tvkehej)" height="63.0229" id="CglibSubclassingInstantiationStrategy" style="stroke:#A80036;stroke-width:1.5;" width="241" x="224.5" y="130"/><ellipse cx="239.5" cy="146" fill="#ADD1B2" rx="11" ry="11" style="stroke:#A80036;stroke-width:1.0;"/><path d="M238.9219,151.8594 Q236.8906,151.8594 235.7031,150.3594 Q234.5313,148.8594 234.5313,145.75 Q234.5313,143.1094 235.7813,141.3438 Q237.0313,139.5625 239.1875,139.5625 Q239.7031,139.5625 240.2344,139.7031 Q240.6719,139.8906 240.9219,139.8906 Q241.1094,139.8906 241.2031,139.8594 Q241.2969,139.8125 241.8438,139.0938 L242.6563,143.0625 L241.6094,143.375 Q241.1563,141.875 240.5625,141.2969 Q239.9844,140.7031 239.0625,140.7031 Q237.8906,140.7031 237.1875,142.1094 Q236.4844,143.5 236.4844,145.6719 Q236.4844,148.0625 237.0781,149.3281 Q237.6875,150.5781 239,150.5781 Q239.9219,150.5781 240.5938,149.9063 Q241.2656,149.2188 241.5938,147.6406 L242.6406,148.1406 Q242.2344,149.9063 241.25,150.8906 Q240.2656,151.8594 238.9219,151.8594 Z " fill="#000000"/><text fill="#000000" font-family="sans-serif" font-size="12" lengthAdjust="spacing" textLength="209" x="253.5" y="151.5576">CglibSubclassingInstantiationStrategy</text><line style="stroke:#A80036;stroke-width:1.5;" x1="225.5" x2="464.5" y1="162" y2="162"/><line style="stroke:#A80036;stroke-width:1.5;" x1="225.5" x2="464.5" y1="170" y2="170"/><ellipse cx="235.5" cy="181" fill="#84BE84" rx="3" ry="3" style="stroke:#038048;stroke-width:1.0;"/><text fill="#000000" font-family="sans-serif" font-size="11" lengthAdjust="spacing" textLength="91" x="244.5" y="186.606">Object instantiate()</text><!--MD5=[c6c397f8c2bfbe77036f849bc2748b3d]
reverse link InstantiationStrategy to SimpleInstantiationStrategy--><path d="M175.68,84.09 C160.16,99.35 143.16,116.08 129.03,129.98 " fill="none" id="InstantiationStrategy-backto-SimpleInstantiationStrategy" style="stroke:#A80036;stroke-width:1.0;stroke-dasharray:7.0,7.0;"/><polygon fill="none" points="170.8,79.07,189.96,70.03,180.61,89.05,170.8,79.07" style="stroke:#A80036;stroke-width:1.0;"/><!--MD5=[472dbbed1d51d3e218bf39acfdca37fe]
reverse link InstantiationStrategy to CglibSubclassingInstantiationStrategy--><path d="M266.69,84.09 C282.34,99.35 299.48,116.08 313.72,129.98 " fill="none" id="InstantiationStrategy-backto-CglibSubclassingInstantiationStrategy" style="stroke:#A80036;stroke-width:1.0;stroke-dasharray:7.0,7.0;"/><polygon fill="none" points="261.72,89.01,252.29,70.03,271.49,78.99,261.72,89.01" style="stroke:#A80036;stroke-width:1.0;"/><!--MD5=[92d79d397488efe27df5018044e1a1fb]
@startuml

interface InstantiationStrategy {
    Object instantiate()
}

class SimpleInstantiationStrategy {
    +Object instantiate()
}

class CglibSubclassingInstantiationStrategy {
    +Object instantiate()
}

class SimpleInstantiationStrategy implements InstantiationStrategy
class CglibSubclassingInstantiationStrategy implements InstantiationStrategy

@enduml

PlantUML version 1.2021.14(Sat Nov 13 00:46:50 CST 2021)
(GPL source distribution)
Java Runtime: Java(TM) SE Runtime Environment
JVM: Java HotSpot(TM) 64-Bit Server VM
Default Encoding: GBK
Language: zh
Country: CN
--></g></svg>