<?xml version="1.0" encoding="UTF-8" standalone="no"?><svg xmlns="http://www.w3.org/2000/svg" xmlns:xlink="http://www.w3.org/1999/xlink" contentScriptType="application/ecmascript" contentStyleType="text/css" height="1462px" preserveAspectRatio="none" style="width:397px;height:1462px;background:#FFFFFF;" version="1.1" viewBox="0 0 397 1462" width="397px" zoomAndPan="magnify"><defs><filter height="300%" id="fh564johblf8q" width="300%" x="-1" y="-1"><feGaussianBlur result="blurOut" stdDeviation="2.0"/><feColorMatrix in="blurOut" result="blurOut2" type="matrix" values="0 0 0 0 0 0 0 0 0 0 0 0 0 0 0 0 0 0 .4 0"/><feOffset dx="4.0" dy="4.0" in="blurOut2" result="blurOut3"/><feBlend in="SourceGraphic" in2="blurOut3" mode="normal"/></filter></defs><g><!--MD5=[bf81c3c78178975eeaf14e9f80daf6c8]
class IRoutes--><rect codeLine="2" fill="#FEFECE" filter="url(#fh564johblf8q)" height="183.2065" id="IRoutes" style="stroke:#A80036;stroke-width:1.5;" width="75" x="62" y="7"/><ellipse cx="77" cy="23" fill="#B4A7E5" rx="11" ry="11" style="stroke:#A80036;stroke-width:1.0;"/><path d="M73.5938,17.7813 L73.5938,16.6875 L79.5938,16.6875 L79.5938,17.7813 L77.7188,17.7813 Q77.5781,17.7813 77.5156,17.8281 Q77.4688,17.8594 77.4688,17.9688 L77.4688,27.4531 Q77.4688,27.5625 77.5156,27.6094 Q77.5781,27.6406 77.7188,27.6406 L79.5938,27.6406 L79.5938,28.7344 L73.5938,28.7344 L73.5938,27.6406 L75.4688,27.6406 Q75.6563,27.6406 75.6875,27.6094 Q75.7188,27.5781 75.7188,27.4531 L75.7188,17.9688 Q75.7188,17.8438 75.6875,17.8125 Q75.6563,17.7813 75.4688,17.7813 L73.5938,17.7813 Z " fill="#000000"/><text fill="#000000" font-family="sans-serif" font-size="12" font-style="italic" lengthAdjust="spacing" textLength="43" x="91" y="28.5576">IRoutes</text><line style="stroke:#A80036;stroke-width:1.5;" x1="63" x2="136" y1="39" y2="39"/><line style="stroke:#A80036;stroke-width:1.5;" x1="63" x2="136" y1="47" y2="47"/><text fill="#000000" font-family="sans-serif" font-size="11" lengthAdjust="spacing" textLength="27" x="68" y="63.606">Use()</text><text fill="#000000" font-family="sans-serif" font-size="11" lengthAdjust="spacing" textLength="28" x="68" y="78.6289">GET()</text><text fill="#000000" font-family="sans-serif" font-size="11" lengthAdjust="spacing" textLength="35" x="68" y="93.6519">POST()</text><text fill="#000000" font-family="sans-serif" font-size="11" lengthAdjust="spacing" textLength="36" x="68" y="108.6748">HEAD()</text><text fill="#000000" font-family="sans-serif" font-size="11" lengthAdjust="spacing" textLength="27" x="68" y="123.6978">PUT()</text><text fill="#000000" font-family="sans-serif" font-size="11" lengthAdjust="spacing" textLength="45" x="68" y="138.7207">DELETE()</text><text fill="#000000" font-family="sans-serif" font-size="11" lengthAdjust="spacing" textLength="42" x="68" y="153.7437">PATCH()</text><text fill="#000000" font-family="sans-serif" font-size="11" lengthAdjust="spacing" textLength="52" x="68" y="168.7666">OPTIONS()</text><text fill="#000000" font-family="sans-serif" font-size="11" lengthAdjust="spacing" textLength="35" x="68" y="183.7896">Static()</text><!--MD5=[c51c00684fed29461fa6bd9b917cc030]
class RouterGroup--><rect codeLine="13" fill="#FEFECE" filter="url(#fh564johblf8q)" height="153.1606" id="RouterGroup" style="stroke:#A80036;stroke-width:1.5;" width="158" x="20.5" y="408"/><ellipse cx="60.25" cy="424" fill="#ADD1B2" rx="11" ry="11" style="stroke:#A80036;stroke-width:1.0;"/><path d="M59.6719,429.8594 Q57.6406,429.8594 56.4531,428.3594 Q55.2813,426.8594 55.2813,423.75 Q55.2813,421.1094 56.5313,419.3438 Q57.7813,417.5625 59.9375,417.5625 Q60.4531,417.5625 60.9844,417.7031 Q61.4219,417.8906 61.6719,417.8906 Q61.8594,417.8906 61.9531,417.8594 Q62.0469,417.8125 62.5938,417.0938 L63.4063,421.0625 L62.3594,421.375 Q61.9063,419.875 61.3125,419.2969 Q60.7344,418.7031 59.8125,418.7031 Q58.6406,418.7031 57.9375,420.1094 Q57.2344,421.5 57.2344,423.6719 Q57.2344,426.0625 57.8281,427.3281 Q58.4375,428.5781 59.75,428.5781 Q60.6719,428.5781 61.3438,427.9063 Q62.0156,427.2188 62.3438,425.6406 L63.3906,426.1406 Q62.9844,427.9063 62,428.8906 Q61.0156,429.8594 59.6719,429.8594 Z " fill="#000000"/><text fill="#000000" font-family="sans-serif" font-size="12" lengthAdjust="spacing" textLength="71" x="79.75" y="429.5576">RouterGroup</text><line style="stroke:#A80036;stroke-width:1.5;" x1="21.5" x2="177.5" y1="440" y2="440"/><rect fill="none" height="6" style="stroke:#C82930;stroke-width:1.0;" width="6" x="28.5" y="448"/><text fill="#000000" font-family="sans-serif" font-size="11" lengthAdjust="spacing" textLength="73" x="40.5" y="456.606">prefix      string</text><rect fill="none" height="6" style="stroke:#C82930;stroke-width:1.0;" width="6" x="28.5" y="463.0229"/><text fill="#000000" font-family="sans-serif" font-size="11" lengthAdjust="spacing" textLength="121" x="40.5" y="471.6289">parent      []*RouterGroup</text><rect fill="none" height="6" style="stroke:#C82930;stroke-width:1.0;" width="6" x="28.5" y="478.0459"/><text fill="#000000" font-family="sans-serif" font-size="11" lengthAdjust="spacing" textLength="86" x="40.5" y="486.6519">engine      *Engine</text><rect fill="none" height="6" style="stroke:#C82930;stroke-width:1.0;" width="6" x="28.5" y="493.0688"/><text fill="#000000" font-family="sans-serif" font-size="11" lengthAdjust="spacing" textLength="132" x="40.5" y="501.6748">middlewares []HandlerFunc</text><line style="stroke:#A80036;stroke-width:1.5;" x1="21.5" x2="177.5" y1="508.0918" y2="508.0918"/><ellipse cx="31.5" cy="519.0918" fill="#84BE84" rx="3" ry="3" style="stroke:#038048;stroke-width:1.0;"/><text fill="#000000" font-family="sans-serif" font-size="11" lengthAdjust="spacing" textLength="38" x="40.5" y="524.6978">Group()</text><rect fill="#F24D5C" height="6" style="stroke:#C82930;stroke-width:1.0;" width="6" x="28.5" y="531.1147"/><text fill="#000000" font-family="sans-serif" font-size="11" lengthAdjust="spacing" textLength="103" x="40.5" y="539.7207">createStaticHandler()</text><rect fill="#F24D5C" height="6" style="stroke:#C82930;stroke-width:1.0;" width="6" x="28.5" y="546.1377"/><text fill="#000000" font-family="sans-serif" font-size="11" lengthAdjust="spacing" textLength="54" x="40.5" y="554.7437">addRoute()</text><!--MD5=[c86ce95fe6226f2d2796c0513d8e83fe]
class Engine--><rect codeLine="23" fill="#FEFECE" filter="url(#fh564johblf8q)" height="213.2524" id="Engine" style="stroke:#A80036;stroke-width:1.5;" width="184" x="7.5" y="779"/><ellipse cx="75.75" cy="795" fill="#ADD1B2" rx="11" ry="11" style="stroke:#A80036;stroke-width:1.0;"/><path d="M75.1719,800.8594 Q73.1406,800.8594 71.9531,799.3594 Q70.7813,797.8594 70.7813,794.75 Q70.7813,792.1094 72.0313,790.3438 Q73.2813,788.5625 75.4375,788.5625 Q75.9531,788.5625 76.4844,788.7031 Q76.9219,788.8906 77.1719,788.8906 Q77.3594,788.8906 77.4531,788.8594 Q77.5469,788.8125 78.0938,788.0938 L78.9063,792.0625 L77.8594,792.375 Q77.4063,790.875 76.8125,790.2969 Q76.2344,789.7031 75.3125,789.7031 Q74.1406,789.7031 73.4375,791.1094 Q72.7344,792.5 72.7344,794.6719 Q72.7344,797.0625 73.3281,798.3281 Q73.9375,799.5781 75.25,799.5781 Q76.1719,799.5781 76.8438,798.9063 Q77.5156,798.2188 77.8438,796.6406 L78.8906,797.1406 Q78.4844,798.9063 77.5,799.8906 Q76.5156,800.8594 75.1719,800.8594 Z " fill="#000000"/><text fill="#000000" font-family="sans-serif" font-size="12" lengthAdjust="spacing" textLength="39" x="96.25" y="800.5576">Engine</text><line style="stroke:#A80036;stroke-width:1.5;" x1="8.5" x2="190.5" y1="811" y2="811"/><ellipse cx="18.5" cy="822" rx="3" ry="3" style="stroke:#038048;stroke-width:1.0;fill:none;"/><text fill="#000000" font-family="sans-serif" font-size="11" lengthAdjust="spacing" textLength="124" x="27.5" y="827.606">MaxMultipartMemory int64</text><rect fill="none" height="6" style="stroke:#C82930;stroke-width:1.0;" width="6" x="15.5" y="834.0229"/><text fill="#000000" font-family="sans-serif" font-size="11" lengthAdjust="spacing" textLength="86" x="27.5" y="842.6289">router        *router</text><rect fill="none" height="6" style="stroke:#C82930;stroke-width:1.0;" width="6" x="15.5" y="849.0459"/><text fill="#000000" font-family="sans-serif" font-size="11" lengthAdjust="spacing" textLength="130" x="27.5" y="857.6519">groups        []*RouterGroup</text><rect fill="none" height="6" style="stroke:#C82930;stroke-width:1.0;" width="6" x="15.5" y="864.0688"/><text fill="#000000" font-family="sans-serif" font-size="11" lengthAdjust="spacing" textLength="158" x="27.5" y="872.6748">htmlTemplates *template.template</text><rect fill="none" height="6" style="stroke:#C82930;stroke-width:1.0;" width="6" x="15.5" y="879.0918"/><text fill="#000000" font-family="sans-serif" font-size="11" lengthAdjust="spacing" textLength="150" x="27.5" y="887.6978">funcMap       template.FuncMap</text><line style="stroke:#A80036;stroke-width:1.5;" x1="8.5" x2="190.5" y1="894.1147" y2="894.1147"/><ellipse cx="18.5" cy="905.1147" fill="#84BE84" rx="3" ry="3" style="stroke:#038048;stroke-width:1.0;"/><text fill="#000000" font-family="sans-serif" font-size="11" lengthAdjust="spacing" textLength="31" x="27.5" y="910.7207">New()</text><ellipse cx="18.5" cy="920.1377" fill="#84BE84" rx="3" ry="3" style="stroke:#038048;stroke-width:1.0;"/><text fill="#000000" font-family="sans-serif" font-size="11" lengthAdjust="spacing" textLength="42" x="27.5" y="925.7437">Default()</text><ellipse cx="18.5" cy="935.1606" fill="#84BE84" rx="3" ry="3" style="stroke:#038048;stroke-width:1.0;"/><text fill="#000000" font-family="sans-serif" font-size="11" lengthAdjust="spacing" textLength="27" x="27.5" y="940.7666">Run()</text><ellipse cx="18.5" cy="950.1836" fill="#84BE84" rx="3" ry="3" style="stroke:#038048;stroke-width:1.0;"/><text fill="#000000" font-family="sans-serif" font-size="11" lengthAdjust="spacing" textLength="62" x="27.5" y="955.7896">ServeHTTP()</text><ellipse cx="18.5" cy="965.2065" fill="#84BE84" rx="3" ry="3" style="stroke:#038048;stroke-width:1.0;"/><text fill="#000000" font-family="sans-serif" font-size="11" lengthAdjust="spacing" textLength="68" x="27.5" y="970.8125">SetFuncMap()</text><ellipse cx="18.5" cy="980.2295" fill="#84BE84" rx="3" ry="3" style="stroke:#038048;stroke-width:1.0;"/><text fill="#000000" font-family="sans-serif" font-size="11" lengthAdjust="spacing" textLength="81" x="27.5" y="985.8354">LoadHTMLGlob()</text><!--MD5=[6754354365917abf8f1a56af1b7e344c]
class Context--><rect codeLine="37" fill="#FEFECE" filter="url(#fh564johblf8q)" height="468.6426" id="Context" style="stroke:#A80036;stroke-width:1.5;" width="169" x="214" y="250"/><ellipse cx="273.75" cy="266" fill="#ADD1B2" rx="11" ry="11" style="stroke:#A80036;stroke-width:1.0;"/><path d="M273.1719,271.8594 Q271.1406,271.8594 269.9531,270.3594 Q268.7813,268.8594 268.7813,265.75 Q268.7813,263.1094 270.0313,261.3438 Q271.2813,259.5625 273.4375,259.5625 Q273.9531,259.5625 274.4844,259.7031 Q274.9219,259.8906 275.1719,259.8906 Q275.3594,259.8906 275.4531,259.8594 Q275.5469,259.8125 276.0938,259.0938 L276.9063,263.0625 L275.8594,263.375 Q275.4063,261.875 274.8125,261.2969 Q274.2344,260.7031 273.3125,260.7031 Q272.1406,260.7031 271.4375,262.1094 Q270.7344,263.5 270.7344,265.6719 Q270.7344,268.0625 271.3281,269.3281 Q271.9375,270.5781 273.25,270.5781 Q274.1719,270.5781 274.8438,269.9063 Q275.5156,269.2188 275.8438,267.6406 L276.8906,268.1406 Q276.4844,269.9063 275.5,270.8906 Q274.5156,271.8594 273.1719,271.8594 Z " fill="#000000"/><text fill="#000000" font-family="sans-serif" font-size="12" lengthAdjust="spacing" textLength="41" x="294.25" y="271.5576">Context</text><line style="stroke:#A80036;stroke-width:1.5;" x1="215" x2="382" y1="282" y2="282"/><ellipse cx="225" cy="293" rx="3" ry="3" style="stroke:#038048;stroke-width:1.0;fill:none;"/><text fill="#000000" font-family="sans-serif" font-size="11" lengthAdjust="spacing" textLength="143" x="234" y="298.606">Writer     http.ResponseWriter</text><ellipse cx="225" cy="308.0229" rx="3" ry="3" style="stroke:#038048;stroke-width:1.0;fill:none;"/><text fill="#000000" font-family="sans-serif" font-size="11" lengthAdjust="spacing" textLength="108" x="234" y="313.6289">Req        *http.Request</text><ellipse cx="225" cy="323.0459" rx="3" ry="3" style="stroke:#038048;stroke-width:1.0;fill:none;"/><text fill="#000000" font-family="sans-serif" font-size="11" lengthAdjust="spacing" textLength="69" x="234" y="328.6519">Path       string</text><ellipse cx="225" cy="338.0688" rx="3" ry="3" style="stroke:#038048;stroke-width:1.0;fill:none;"/><text fill="#000000" font-family="sans-serif" font-size="11" lengthAdjust="spacing" textLength="77" x="234" y="343.6748">Method     string</text><ellipse cx="225" cy="353.0918" rx="3" ry="3" style="stroke:#038048;stroke-width:1.0;fill:none;"/><text fill="#000000" font-family="sans-serif" font-size="11" lengthAdjust="spacing" textLength="70" x="234" y="358.6978">StatusCode int</text><ellipse cx="225" cy="368.1147" rx="3" ry="3" style="stroke:#038048;stroke-width:1.0;fill:none;"/><text fill="#000000" font-family="sans-serif" font-size="11" lengthAdjust="spacing" textLength="131" x="234" y="373.7207">Params     map[string]string</text><rect fill="none" height="6" style="stroke:#C82930;stroke-width:1.0;" width="6" x="222" y="380.1377"/><text fill="#000000" font-family="sans-serif" font-size="11" lengthAdjust="spacing" textLength="118" x="234" y="388.7437">handlers   []HandlerFunc</text><rect fill="none" height="6" style="stroke:#C82930;stroke-width:1.0;" width="6" x="222" y="395.1606"/><text fill="#000000" font-family="sans-serif" font-size="11" lengthAdjust="spacing" textLength="55" x="234" y="403.7666">index      int</text><rect fill="none" height="6" style="stroke:#C82930;stroke-width:1.0;" width="6" x="222" y="410.1836"/><text fill="#000000" font-family="sans-serif" font-size="11" lengthAdjust="spacing" textLength="83" x="234" y="418.7896">engine     *Engine</text><rect fill="none" height="6" style="stroke:#C82930;stroke-width:1.0;" width="6" x="222" y="425.2065"/><text fill="#000000" font-family="sans-serif" font-size="11" lengthAdjust="spacing" textLength="118" x="234" y="433.8125">sameSite   http.sameSite</text><line style="stroke:#A80036;stroke-width:1.5;" x1="215" x2="382" y1="440.2295" y2="440.2295"/><ellipse cx="225" cy="451.2295" fill="#84BE84" rx="3" ry="3" style="stroke:#038048;stroke-width:1.0;"/><text fill="#000000" font-family="sans-serif" font-size="11" lengthAdjust="spacing" textLength="53" x="234" y="456.8354">PostForm()</text><ellipse cx="225" cy="466.2524" fill="#84BE84" rx="3" ry="3" style="stroke:#038048;stroke-width:1.0;"/><text fill="#000000" font-family="sans-serif" font-size="11" lengthAdjust="spacing" textLength="38" x="234" y="471.8584">Query()</text><ellipse cx="225" cy="481.2754" fill="#84BE84" rx="3" ry="3" style="stroke:#038048;stroke-width:1.0;"/><text fill="#000000" font-family="sans-serif" font-size="11" lengthAdjust="spacing" textLength="39" x="234" y="486.8813">Status()</text><ellipse cx="225" cy="496.2983" fill="#84BE84" rx="3" ry="3" style="stroke:#038048;stroke-width:1.0;"/><text fill="#000000" font-family="sans-serif" font-size="11" lengthAdjust="spacing" textLength="59" x="234" y="501.9043">SetHeader()</text><ellipse cx="225" cy="511.3213" fill="#84BE84" rx="3" ry="3" style="stroke:#038048;stroke-width:1.0;"/><text fill="#000000" font-family="sans-serif" font-size="11" lengthAdjust="spacing" textLength="36" x="234" y="516.9272">String()</text><ellipse cx="225" cy="526.3442" fill="#84BE84" rx="3" ry="3" style="stroke:#038048;stroke-width:1.0;"/><text fill="#000000" font-family="sans-serif" font-size="11" lengthAdjust="spacing" textLength="35" x="234" y="531.9502">JSON()</text><ellipse cx="225" cy="541.3672" fill="#84BE84" rx="3" ry="3" style="stroke:#038048;stroke-width:1.0;"/><text fill="#000000" font-family="sans-serif" font-size="11" lengthAdjust="spacing" textLength="29" x="234" y="546.9731">XML()</text><ellipse cx="225" cy="556.3901" fill="#84BE84" rx="3" ry="3" style="stroke:#038048;stroke-width:1.0;"/><text fill="#000000" font-family="sans-serif" font-size="11" lengthAdjust="spacing" textLength="30" x="234" y="561.9961">Data()</text><ellipse cx="225" cy="571.4131" fill="#84BE84" rx="3" ry="3" style="stroke:#038048;stroke-width:1.0;"/><text fill="#000000" font-family="sans-serif" font-size="11" lengthAdjust="spacing" textLength="35" x="234" y="577.019">HTML()</text><ellipse cx="225" cy="586.436" fill="#84BE84" rx="3" ry="3" style="stroke:#038048;stroke-width:1.0;"/><text fill="#000000" font-family="sans-serif" font-size="11" lengthAdjust="spacing" textLength="24" x="234" y="592.042">Fail()</text><ellipse cx="225" cy="601.459" fill="#84BE84" rx="3" ry="3" style="stroke:#038048;stroke-width:1.0;"/><text fill="#000000" font-family="sans-serif" font-size="11" lengthAdjust="spacing" textLength="38" x="234" y="607.0649">Param()</text><ellipse cx="225" cy="616.4819" fill="#84BE84" rx="3" ry="3" style="stroke:#038048;stroke-width:1.0;"/><text fill="#000000" font-family="sans-serif" font-size="11" lengthAdjust="spacing" textLength="30" x="234" y="622.0879">Next()</text><ellipse cx="225" cy="631.5049" fill="#84BE84" rx="3" ry="3" style="stroke:#038048;stroke-width:1.0;"/><text fill="#000000" font-family="sans-serif" font-size="11" lengthAdjust="spacing" textLength="40" x="234" y="637.1108">Cookie()</text><ellipse cx="225" cy="646.5278" fill="#84BE84" rx="3" ry="3" style="stroke:#038048;stroke-width:1.0;"/><text fill="#000000" font-family="sans-serif" font-size="11" lengthAdjust="spacing" textLength="62" x="234" y="652.1338">SetCookies()</text><ellipse cx="225" cy="661.5508" fill="#84BE84" rx="3" ry="3" style="stroke:#038048;stroke-width:1.0;"/><text fill="#000000" font-family="sans-serif" font-size="11" lengthAdjust="spacing" textLength="48" x="234" y="667.1567">FormFile()</text><ellipse cx="225" cy="676.5737" fill="#84BE84" rx="3" ry="3" style="stroke:#038048;stroke-width:1.0;"/><text fill="#000000" font-family="sans-serif" font-size="11" lengthAdjust="spacing" textLength="72" x="234" y="682.1797">MultipartForm()</text><ellipse cx="225" cy="691.5967" fill="#84BE84" rx="3" ry="3" style="stroke:#038048;stroke-width:1.0;"/><text fill="#000000" font-family="sans-serif" font-size="11" lengthAdjust="spacing" textLength="82" x="234" y="697.2026">SaveUploadFile()</text><rect fill="#F24D5C" height="6" style="stroke:#C82930;stroke-width:1.0;" width="6" x="222" y="703.6196"/><text fill="#000000" font-family="sans-serif" font-size="11" lengthAdjust="spacing" textLength="67" x="234" y="712.2256">newContext()</text><!--MD5=[b338b3d25508634ec7ece070defa0270]
class router--><rect codeLine="68" fill="#FEFECE" filter="url(#fh564johblf8q)" height="153.1606" id="router" style="stroke:#A80036;stroke-width:1.5;" width="185" x="7" y="1052"/><ellipse cx="79.25" cy="1068" fill="#ADD1B2" rx="11" ry="11" style="stroke:#A80036;stroke-width:1.0;"/><path d="M78.6719,1073.8594 Q76.6406,1073.8594 75.4531,1072.3594 Q74.2813,1070.8594 74.2813,1067.75 Q74.2813,1065.1094 75.5313,1063.3438 Q76.7813,1061.5625 78.9375,1061.5625 Q79.4531,1061.5625 79.9844,1061.7031 Q80.4219,1061.8906 80.6719,1061.8906 Q80.8594,1061.8906 80.9531,1061.8594 Q81.0469,1061.8125 81.5938,1061.0938 L82.4063,1065.0625 L81.3594,1065.375 Q80.9063,1063.875 80.3125,1063.2969 Q79.7344,1062.7031 78.8125,1062.7031 Q77.6406,1062.7031 76.9375,1064.1094 Q76.2344,1065.5 76.2344,1067.6719 Q76.2344,1070.0625 76.8281,1071.3281 Q77.4375,1072.5781 78.75,1072.5781 Q79.6719,1072.5781 80.3438,1071.9063 Q81.0156,1071.2188 81.3438,1069.6406 L82.3906,1070.1406 Q81.9844,1071.9063 81,1072.8906 Q80.0156,1073.8594 78.6719,1073.8594 Z " fill="#000000"/><text fill="#000000" font-family="sans-serif" font-size="12" lengthAdjust="spacing" textLength="32" x="99.75" y="1073.5576">router</text><line style="stroke:#A80036;stroke-width:1.5;" x1="8" x2="191" y1="1084" y2="1084"/><rect fill="none" height="6" style="stroke:#C82930;stroke-width:1.0;" width="6" x="15" y="1092"/><text fill="#000000" font-family="sans-serif" font-size="11" lengthAdjust="spacing" textLength="118" x="27" y="1100.606">roots    map[string]*node</text><rect fill="none" height="6" style="stroke:#C82930;stroke-width:1.0;" width="6" x="15" y="1107.0229"/><text fill="#000000" font-family="sans-serif" font-size="11" lengthAdjust="spacing" textLength="159" x="27" y="1115.6289">handlers map[string]HandlerFunc</text><line style="stroke:#A80036;stroke-width:1.5;" x1="8" x2="191" y1="1122.0459" y2="1122.0459"/><rect fill="#F24D5C" height="6" style="stroke:#C82930;stroke-width:1.0;" width="6" x="15" y="1130.0459"/><text fill="#000000" font-family="sans-serif" font-size="11" lengthAdjust="spacing" textLength="62" x="27" y="1138.6519">newRouter()</text><rect fill="#F24D5C" height="6" style="stroke:#C82930;stroke-width:1.0;" width="6" x="15" y="1145.0688"/><text fill="#000000" font-family="sans-serif" font-size="11" lengthAdjust="spacing" textLength="64" x="27" y="1153.6748">parsePatter()</text><rect fill="#F24D5C" height="6" style="stroke:#C82930;stroke-width:1.0;" width="6" x="15" y="1160.0918"/><text fill="#000000" font-family="sans-serif" font-size="11" lengthAdjust="spacing" textLength="54" x="27" y="1168.6978">addRoute()</text><rect fill="#F24D5C" height="6" style="stroke:#C82930;stroke-width:1.0;" width="6" x="15" y="1175.1147"/><text fill="#000000" font-family="sans-serif" font-size="11" lengthAdjust="spacing" textLength="51" x="27" y="1183.7207">getRoute()</text><rect fill="#F24D5C" height="6" style="stroke:#C82930;stroke-width:1.0;" width="6" x="15" y="1190.1377"/><text fill="#000000" font-family="sans-serif" font-size="11" lengthAdjust="spacing" textLength="40" x="27" y="1198.7437">handle()</text><!--MD5=[005f6441e5b45dba43c18624cb914bad]
class node--><rect codeLine="78" fill="#FEFECE" filter="url(#fh564johblf8q)" height="183.2065" id="node" style="stroke:#A80036;stroke-width:1.5;" width="102" x="48.5" y="1265"/><ellipse cx="82.4" cy="1281" fill="#ADD1B2" rx="11" ry="11" style="stroke:#A80036;stroke-width:1.0;"/><path d="M81.8219,1286.8594 Q79.7906,1286.8594 78.6031,1285.3594 Q77.4313,1283.8594 77.4313,1280.75 Q77.4313,1278.1094 78.6813,1276.3438 Q79.9313,1274.5625 82.0875,1274.5625 Q82.6031,1274.5625 83.1344,1274.7031 Q83.5719,1274.8906 83.8219,1274.8906 Q84.0094,1274.8906 84.1031,1274.8594 Q84.1969,1274.8125 84.7438,1274.0938 L85.5563,1278.0625 L84.5094,1278.375 Q84.0563,1276.875 83.4625,1276.2969 Q82.8844,1275.7031 81.9625,1275.7031 Q80.7906,1275.7031 80.0875,1277.1094 Q79.3844,1278.5 79.3844,1280.6719 Q79.3844,1283.0625 79.9781,1284.3281 Q80.5875,1285.5781 81.9,1285.5781 Q82.8219,1285.5781 83.4938,1284.9063 Q84.1656,1284.2188 84.4938,1282.6406 L85.5406,1283.1406 Q85.1344,1284.9063 84.15,1285.8906 Q83.1656,1286.8594 81.8219,1286.8594 Z " fill="#000000"/><text fill="#000000" font-family="sans-serif" font-size="12" lengthAdjust="spacing" textLength="28" x="100.6" y="1286.5576">node</text><line style="stroke:#A80036;stroke-width:1.5;" x1="49.5" x2="149.5" y1="1297" y2="1297"/><rect fill="none" height="6" style="stroke:#C82930;stroke-width:1.0;" width="6" x="56.5" y="1305"/><text fill="#000000" font-family="sans-serif" font-size="11" lengthAdjust="spacing" textLength="67" x="68.5" y="1313.606">pattern  string</text><rect fill="none" height="6" style="stroke:#C82930;stroke-width:1.0;" width="6" x="56.5" y="1320.0229"/><text fill="#000000" font-family="sans-serif" font-size="11" lengthAdjust="spacing" textLength="61" x="68.5" y="1328.6289">part     string</text><rect fill="none" height="6" style="stroke:#C82930;stroke-width:1.0;" width="6" x="56.5" y="1335.0459"/><text fill="#000000" font-family="sans-serif" font-size="11" lengthAdjust="spacing" textLength="75" x="68.5" y="1343.6519">children []*node</text><rect fill="none" height="6" style="stroke:#C82930;stroke-width:1.0;" width="6" x="56.5" y="1350.0688"/><text fill="#000000" font-family="sans-serif" font-size="11" lengthAdjust="spacing" textLength="57" x="68.5" y="1358.6748">isWild   bool</text><line style="stroke:#A80036;stroke-width:1.5;" x1="49.5" x2="149.5" y1="1365.0918" y2="1365.0918"/><rect fill="#F24D5C" height="6" style="stroke:#C82930;stroke-width:1.0;" width="6" x="56.5" y="1373.0918"/><text fill="#000000" font-family="sans-serif" font-size="11" lengthAdjust="spacing" textLength="35" x="68.5" y="1381.6978">insert()</text><rect fill="#F24D5C" height="6" style="stroke:#C82930;stroke-width:1.0;" width="6" x="56.5" y="1388.1147"/><text fill="#000000" font-family="sans-serif" font-size="11" lengthAdjust="spacing" textLength="42" x="68.5" y="1396.7207">search()</text><rect fill="#F24D5C" height="6" style="stroke:#C82930;stroke-width:1.0;" width="6" x="56.5" y="1403.1377"/><text fill="#000000" font-family="sans-serif" font-size="11" lengthAdjust="spacing" textLength="35" x="68.5" y="1411.7437">travel()</text><rect fill="#F24D5C" height="6" style="stroke:#C82930;stroke-width:1.0;" width="6" x="56.5" y="1418.1606"/><text fill="#000000" font-family="sans-serif" font-size="11" lengthAdjust="spacing" textLength="60" x="68.5" y="1426.7666">matchChild()</text><rect fill="#F24D5C" height="6" style="stroke:#C82930;stroke-width:1.0;" width="6" x="56.5" y="1433.1836"/><text fill="#000000" font-family="sans-serif" font-size="11" lengthAdjust="spacing" textLength="76" x="68.5" y="1441.7896">matchChildren()</text><!--MD5=[28e69fe8e6ef42f58799bc6ca557d1b1]
reverse link IRoutes to RouterGroup--><path codeLine="91" d="M99.5,210.04 C99.5,273.44 99.5,351.37 99.5,407.8 " fill="none" id="IRoutes-backto-RouterGroup" style="stroke:#A80036;stroke-width:1.0;stroke-dasharray:7.0,7.0;"/><polygon fill="none" points="92.5,210.02,99.5,190.02,106.5,210.02,92.5,210.02" style="stroke:#A80036;stroke-width:1.0;"/><!--MD5=[49c573528c5434309ca9e6f975ef004c]
reverse link RouterGroup to Engine--><path codeLine="92" d="M76.7,581.32 C72.34,640.86 72.11,717.47 76.02,778.79 " fill="none" id="RouterGroup-backto-Engine" style="stroke:#A80036;stroke-width:1.0;"/><polygon fill="none" points="69.75,580.36,78.41,561.02,83.7,581.54,69.75,580.36" style="stroke:#A80036;stroke-width:1.0;"/><!--MD5=[aa425b3690c0f3d08de9da331322e08e]
reverse link Engine to RouterGroup--><path codeLine="95" d="M99.5,765.72 C99.5,699.39 99.5,618.74 99.5,561.02 " fill="none" id="Engine-backto-RouterGroup" style="stroke:#A80036;stroke-width:1.0;"/><polygon fill="#A80036" points="99.5,778.79,103.5,772.79,99.5,766.79,95.5,772.79,99.5,778.79" style="stroke:#A80036;stroke-width:1.0;"/><!--MD5=[49c573528c5434309ca9e6f975ef004c]
reverse link RouterGroup to Engine--><path codeLine="96" d="M121.74,573.99 C126.64,634.48 127.05,714.93 122.98,778.79 " fill="none" id="RouterGroup-backto-Engine-1" style="stroke:#A80036;stroke-width:1.0;"/><polygon fill="#A80036" points="120.59,561.02,117.1333,567.3486,121.6455,572.9735,125.1022,566.6449,120.59,561.02" style="stroke:#A80036;stroke-width:1.0;"/><!--MD5=[fa47e63d475dc1bb1177423c756b1ac7]
reverse link Engine to router--><path codeLine="94" d="M99.5,1005.46 C99.5,1021.27 99.5,1037.13 99.5,1051.92 " fill="none" id="Engine-backto-router" style="stroke:#A80036;stroke-width:1.0;"/><polygon fill="#A80036" points="99.5,992.21,95.5,998.21,99.5,1004.21,103.5,998.21,99.5,992.21" style="stroke:#A80036;stroke-width:1.0;"/><!--MD5=[0c06db7d8afea92ca6f424d05e7f6668]
reverse link Context to Engine--><path codeLine="97" d="M208.2,695.48 C204.32,703.45 200.41,711.32 196.5,719 C186.53,738.59 175.25,759.08 164,778.7 " fill="none" id="Context-backto-Engine" style="stroke:#A80036;stroke-width:1.0;"/><polygon fill="#A80036" points="213.86,683.72,207.6524,687.3896,208.6522,694.5311,214.8598,690.8615,213.86,683.72" style="stroke:#A80036;stroke-width:1.0;"/><!--MD5=[045a02e59055d79a13d30c66a45468e9]
reverse link router to node--><path codeLine="98" d="M99.5,1218.28 C99.5,1233.53 99.5,1249.4 99.5,1264.71 " fill="none" id="router-backto-node" style="stroke:#A80036;stroke-width:1.0;"/><polygon fill="#A80036" points="99.5,1205.07,95.5,1211.07,99.5,1217.07,103.5,1211.07,99.5,1205.07" style="stroke:#A80036;stroke-width:1.0;"/><!--MD5=[07cf5f237296461e1c7f5b1b41dbe7dd]
@startuml

interface IRoutes {
    Use()
    GET()
    POST()
    HEAD()
    PUT()
    DELETE()
    PATCH()
    OPTIONS()
    Static()
}
class RouterGroup {
    -prefix      string
    -parent      []*RouterGroup
    -engine      *Engine
    -middlewares []HandlerFunc

    +Group()
    -createStaticHandler()
    -addRoute()
}
class Engine {
    +MaxMultipartMemory int64
    -router        *router
    -groups        []*RouterGroup
    -htmlTemplates *template.template
    -funcMap       template.FuncMap

    +New()
    +Default()
    +Run()
    +ServeHTTP()
    +SetFuncMap()
    +LoadHTMLGlob()
}
class Context {
    +Writer     http.ResponseWriter
    +Req        *http.Request
    +Path       string
    +Method     string
    +StatusCode int
    +Params     map[string]string
    -handlers   []HandlerFunc
    -index      int
    -engine     *Engine
    -sameSite   http.sameSite

    +PostForm()
    +Query()
    +Status()
    +SetHeader()
    +String()
    +JSON()
    +XML()
    +Data()
    +HTML()
    +Fail()
    +Param()
    +Next()
    +Cookie()
    +SetCookies()
    +FormFile()
    +MultipartForm()
    +SaveUploadFile()
    -newContext()
}
class router {
    -roots    map[string]*node
    -handlers map[string]HandlerFunc

    -newRouter()
    -parsePatter()
    -addRoute()
    -getRoute()
    -handle()
}
class node {
    -pattern  string
    -part     string
    -children []*node
    -isWild   bool

    -insert()
    -search()
    -travel()
    -matchChild()
    -matchChildren()
}

IRoutes <|.. RouterGroup
RouterGroup <|- - Engine

Engine *- - router
Engine *- - RouterGroup
RouterGroup *- - Engine
Context *- - Engine
router *- - node

@enduml

PlantUML version 1.2021.7(Sun May 23 20:40:07 CST 2021)
(GPL source distribution)
Java Runtime: Java(TM) SE Runtime Environment
JVM: Java HotSpot(TM) 64-Bit Server VM
Default Encoding: GBK
Language: zh
Country: CN
--></g></svg>