<?xml version="1.0" encoding="UTF-8" standalone="no"?><svg xmlns="http://www.w3.org/2000/svg" xmlns:xlink="http://www.w3.org/1999/xlink" contentScriptType="application/ecmascript" contentStyleType="text/css" height="375px" preserveAspectRatio="none" style="width:476px;height:375px;background:#FFFFFF;" version="1.1" viewBox="0 0 476 375" width="476px" zoomAndPan="magnify"><defs><filter height="300%" id="f492g9dmvqz98" width="300%" x="-1" y="-1"><feGaussianBlur result="blurOut" stdDeviation="2.0"/><feColorMatrix in="blurOut" result="blurOut2" type="matrix" values="0 0 0 0 0 0 0 0 0 0 0 0 0 0 0 0 0 0 .4 0"/><feOffset dx="4.0" dy="4.0" in="blurOut2" result="blurOut3"/><feBlend in="SourceGraphic" in2="blurOut3" mode="normal"/></filter></defs><g><rect fill="#ADD8E6" height="363.0122" style="stroke:#A80036;stroke-width:1.0;" width="168" x="302.5" y="6"/><text fill="#000000" font-family="sans-serif" font-size="13" font-weight="bold" lengthAdjust="spacing" textLength="19" x="377" y="20.8979">Jin</text><rect fill="#FFFFFF" filter="url(#f492g9dmvqz98)" height="36.7544" style="stroke:#A80036;stroke-width:1.0;" width="10" x="428.5" y="193.3833"/><line style="stroke:#A80036;stroke-width:1.0;stroke-dasharray:5.0,5.0;" x1="24" x2="24" y1="91.1201" y2="279.8921"/><line style="stroke:#A80036;stroke-width:1.0;stroke-dasharray:5.0,5.0;" x1="174.5" x2="174.5" y1="91.1201" y2="279.8921"/><line style="stroke:#A80036;stroke-width:1.0;stroke-dasharray:5.0,5.0;" x1="337.5" x2="337.5" y1="91.1201" y2="279.8921"/><line style="stroke:#A80036;stroke-width:1.0;stroke-dasharray:5.0,5.0;" x1="433.5" x2="433.5" y1="91.1201" y2="279.8921"/><text fill="#000000" font-family="sans-serif" font-size="14" lengthAdjust="spacing" textLength="33" x="5" y="88.0439">client</text><ellipse cx="24.5" cy="15" fill="#FEFECE" filter="url(#f492g9dmvqz98)" rx="8" ry="8" style="stroke:#A80036;stroke-width:2.0;"/><path d="M24.5,23 L24.5,50 M11.5,31 L37.5,31 M24.5,50 L11.5,65 M24.5,50 L37.5,65 " fill="none" filter="url(#f492g9dmvqz98)" style="stroke:#A80036;stroke-width:2.0;"/><text fill="#000000" font-family="sans-serif" font-size="14" lengthAdjust="spacing" textLength="33" x="5" y="294.936">client</text><ellipse cx="24.5" cy="308.0122" fill="#FEFECE" filter="url(#f492g9dmvqz98)" rx="8" ry="8" style="stroke:#A80036;stroke-width:2.0;"/><path d="M24.5,316.0122 L24.5,343.0122 M11.5,324.0122 L37.5,324.0122 M24.5,343.0122 L11.5,358.0122 M24.5,343.0122 L37.5,358.0122 " fill="none" filter="url(#f492g9dmvqz98)" style="stroke:#A80036;stroke-width:2.0;"/><rect fill="#FEFECE" filter="url(#f492g9dmvqz98)" height="33.1201" style="stroke:#A80036;stroke-width:1.5;" width="56" x="144.5" y="53"/><text fill="#000000" font-family="sans-serif" font-size="14" lengthAdjust="spacing" textLength="42" x="151.5" y="76.0439">Server</text><rect fill="#FEFECE" filter="url(#f492g9dmvqz98)" height="33.1201" style="stroke:#A80036;stroke-width:1.5;" width="56" x="144.5" y="278.8921"/><text fill="#000000" font-family="sans-serif" font-size="14" lengthAdjust="spacing" textLength="42" x="151.5" y="301.936">Server</text><rect fill="#FEFECE" filter="url(#f492g9dmvqz98)" height="33.1201" style="stroke:#A80036;stroke-width:1.5;" width="58" x="306.5" y="53"/><text fill="#000000" font-family="sans-serif" font-size="14" lengthAdjust="spacing" textLength="44" x="313.5" y="76.0439">Engine</text><rect fill="#FEFECE" filter="url(#f492g9dmvqz98)" height="33.1201" style="stroke:#A80036;stroke-width:1.5;" width="58" x="306.5" y="278.8921"/><text fill="#000000" font-family="sans-serif" font-size="14" lengthAdjust="spacing" textLength="44" x="313.5" y="301.936">Engine</text><rect fill="#FEFECE" filter="url(#f492g9dmvqz98)" height="33.1201" style="stroke:#A80036;stroke-width:1.5;" width="62" x="400.5" y="53"/><text fill="#000000" font-family="sans-serif" font-size="14" lengthAdjust="spacing" textLength="48" x="407.5" y="76.0439">Context</text><rect fill="#FEFECE" filter="url(#f492g9dmvqz98)" height="33.1201" style="stroke:#A80036;stroke-width:1.5;" width="62" x="400.5" y="278.8921"/><text fill="#000000" font-family="sans-serif" font-size="14" lengthAdjust="spacing" textLength="48" x="407.5" y="301.936">Context</text><rect fill="#FFFFFF" filter="url(#f492g9dmvqz98)" height="36.7544" style="stroke:#A80036;stroke-width:1.0;" width="10" x="428.5" y="193.3833"/><polygon fill="#A80036" points="162.5,120.8745,172.5,124.8745,162.5,128.8745,166.5,124.8745" style="stroke:#A80036;stroke-width:1.0;"/><line style="stroke:#A80036;stroke-width:1.0;" x1="24.5" x2="168.5" y1="124.8745" y2="124.8745"/><text fill="#000000" font-family="sans-serif" font-size="13" lengthAdjust="spacing" textLength="84" x="31.5" y="120.0181">HTTP Request</text><polygon fill="#A80036" points="325.5,152.6289,335.5,156.6289,325.5,160.6289,329.5,156.6289" style="stroke:#A80036;stroke-width:1.0;"/><line style="stroke:#A80036;stroke-width:1.0;" x1="174.5" x2="331.5" y1="156.6289" y2="156.6289"/><text fill="#000000" font-family="sans-serif" font-size="13" lengthAdjust="spacing" textLength="139" x="181.5" y="151.7725">send Request to Engine</text><polygon fill="#A80036" points="416.5,189.3833,426.5,193.3833,416.5,197.3833,420.5,193.3833" style="stroke:#A80036;stroke-width:1.0;"/><line style="stroke:#A80036;stroke-width:1.0;" x1="337.5" x2="422.5" y1="193.3833" y2="193.3833"/><text fill="#000000" font-family="sans-serif" font-size="13" lengthAdjust="spacing" textLength="72" x="344.5" y="188.5269">new Context</text><path d="M126,169.6289 L126,196.6289 L328,196.6289 L328,179.6289 L318,169.6289 L126,169.6289 " fill="#FBFB77" filter="url(#f492g9dmvqz98)" style="stroke:#A80036;stroke-width:1.0;"/><path d="M318,169.6289 L318,179.6289 L328,179.6289 L318,169.6289 " fill="#FBFB77" style="stroke:#A80036;stroke-width:1.0;"/><text fill="#000000" font-family="sans-serif" font-size="13" lengthAdjust="spacing" textLength="181" x="132" y="189.5269">create a context for the request</text><polygon fill="#A80036" points="185.5,226.1377,175.5,230.1377,185.5,234.1377,181.5,230.1377" style="stroke:#A80036;stroke-width:1.0;"/><line style="stroke:#A80036;stroke-width:1.0;" x1="179.5" x2="432.5" y1="230.1377" y2="230.1377"/><text fill="#000000" font-family="sans-serif" font-size="13" lengthAdjust="spacing" textLength="141" x="191.5" y="225.2813">send the result to Server</text><polygon fill="#A80036" points="35.5,257.8921,25.5,261.8921,35.5,265.8921,31.5,261.8921" style="stroke:#A80036;stroke-width:1.0;"/><line style="stroke:#A80036;stroke-width:1.0;" x1="29.5" x2="173.5" y1="261.8921" y2="261.8921"/><text fill="#000000" font-family="sans-serif" font-size="13" lengthAdjust="spacing" textLength="126" x="41.5" y="257.0356">send HTTP Response</text><!--MD5=[e20450de820b0f6b18beecc15673fc04]
@startuml
actor client

participant Server
box "Jin" #LightBlue
participant Engine
participant Context
end box

client -> Server: HTTP Request
Server -> Engine: send Request to Engine
Engine -> Context: new Context
note left: create a context for the request
activate Context
Context -> Server: send the result to Server
deactivate Context
Server -> client: send HTTP Response

@enduml

PlantUML version 1.2021.7(Sun May 23 20:40:07 CST 2021)
(GPL source distribution)
Java Runtime: Java(TM) SE Runtime Environment
JVM: Java HotSpot(TM) 64-Bit Server VM
Default Encoding: GBK
Language: zh
Country: CN
--></g></svg>